<svg xmlns="http://www.w3.org/2000/svg" xmlns:xlink="http://www.w3.org/1999/xlink" width="350.053" height="292.489" viewBox="0 0 350.053 292.489"><defs><style>.a{fill:#fff;}.b{clip-path:url(#a);}.c{fill:#9e7c52;}.d{fill:#202b46;}</style><clipPath id="a"><path class="a" d="M0,0,350.053,99.249v193.24H0Z" transform="translate(0 0)"></path></clipPath></defs><g transform="translate(-343 -4414.433)"><g class="b" transform="translate(343 4414.433)"><rect class="a" width="349" height="350" transform="translate(0 -11)"></rect></g><g transform="translate(258.588 4083.357)"><g transform="translate(201.412 542.664)"><g transform="translate(0)"><path class="c" d="M965.209,247.022l-.723.723h1.141Q965.414,247.386,965.209,247.022Z" transform="translate(-964.486 -247.022)"></path></g></g><g transform="translate(225.061 411.797)"><g transform="translate(2.519 4.98)"><g transform="translate(3.963 104.643)"><g transform="translate(0 0)"><path class="a" d="M950.334,219.552a32.758,32.758,0,0,1-.259-5.053L934.934,229.64v5h3.83l12.067-12.067Q950.531,221.064,950.334,219.552Z" transform="translate(-934.934 -214.499)"></path></g></g><g transform="translate(0 0)"><g transform="translate(38.414 86.52)"><g transform="translate(0 0)"><path class="a" d="M986.616,192.514a16.805,16.805,0,0,1,1.623,1.474q.406.421.779.868c.094.111.184.226.278.339q.266.337-.167-.223c.059.078.117.156.174.234a19.255,19.255,0,0,1,2.152,3.822l-.281-.668a21.293,21.293,0,0,1,1.432,5.241l-.1-.743a24.027,24.027,0,0,1-.028,6.355l.1-.743a30.22,30.22,0,0,1-2.127,7.566l.281-.668q-.429,1-.917,1.979a2.795,2.795,0,1,0,4.825,2.822,32.531,32.531,0,0,0,3.65-13.785,23.766,23.766,0,0,0-3.16-12.472,19.489,19.489,0,0,0-4.562-5.354,3.031,3.031,0,0,0-1.977-.819,2.844,2.844,0,0,0-1.976.819,2.807,2.807,0,0,0-.818,1.976,2.708,2.708,0,0,0,.818,1.976Z" transform="translate(-985.798 -187.741)"></path></g></g><g transform="translate(55.174 6.894)"><g transform="translate(0 0)"><rect class="a" width="17.425" height="1.863" transform="matrix(0.739, -0.674, 0.674, 0.739, 0, 11.744)"></rect></g></g><g transform="translate(25.668 7.086)"><g transform="translate(0 0)"><g transform="translate(0)"><rect class="a" width="1.863" height="17.223" transform="translate(0 1.369) rotate(-47.31)"></rect></g></g></g><g transform="translate(48.558 4.382)"><g transform="translate(0 0)"><g transform="translate(0)"><rect class="a" width="14.045" height="1.863" transform="translate(0 12.472) rotate(-62.615)"></rect></g></g></g><g transform="translate(44.352 21.863)"><rect class="a" width="5.765" height="1.863"></rect></g><g transform="translate(43.322)"><g transform="translate(0)"><rect class="a" width="8.492" height="1.863" transform="translate(0 7.652) rotate(-64.28)"></rect></g></g><g transform="translate(26.604 99.84)"><g transform="translate(7.635 27.777)"><path class="a" d="M981.7,253.991l14.487-1.737c.757-1.218,1.517-2.5,2.257-3.836l-18.808,2.254C980.323,251.832,981.018,252.943,981.7,253.991Z" transform="translate(-979.634 -248.418)"></path></g><g transform="translate(0 0)"><path class="a" d="M999.715,208.873a12.783,12.783,0,0,0-.839-1.465,21.2,21.2,0,0,1,.167,7.766c-.368,2.635-.925,5.462-2.88,7.4-.186.275-.379.546-.583.81-1.113,1.441-2.665,2.976-4.486,3.315a12.375,12.375,0,0,1-12.233.253,9.946,9.946,0,0,1-4.987-3.569,18.349,18.349,0,0,1-5.181-11.214c-1.367,6.74,1.682,14.991,5.485,22.063l22.526-2.7C1000.427,223.877,1002.83,215.3,999.715,208.873Z" transform="translate(-968.361 -207.408)"></path></g><g transform="translate(12.079 37.018)"><g transform="translate(0 0)"><path class="a" d="M986.194,263.251c2.579,3.681,4.554,6.025,4.554,6.025s2.407-2.856,5.377-7.214Z" transform="translate(-986.194 -262.061)"></path></g></g></g><g transform="translate(14.351 25.401)"><g transform="translate(0 0)"><path class="a" d="M978.437,99.069a7.035,7.035,0,0,1-1.127-1.224c-.111-.111-.223-.223-.33-.337L963,98.492s-8.368,6.453-8.581,6.524-4.147,3.182-4.147,3.182H960.8a8.981,8.981,0,0,0,5.713-2.052h0a8.983,8.983,0,0,1,5.714-2.052h9.918v-3.227a6.513,6.513,0,0,1-3.709-1.8Z" transform="translate(-950.27 -97.508)"></path></g></g><g transform="translate(0 46.471)"><g transform="translate(0 0)"><path class="a" d="M939.892,128.617s4.228,8.211-4.748,13.6a4.984,4.984,0,0,0,5.295,2.349s-.532,4.172-.612,4.172-5.771.878-5.93.8-4.814-7.738-4.814-7.738l2.819-5.133s5.239-1.7,5.239-1.78,1.168-6.269,1.168-6.269Z" transform="translate(-929.083 -128.616)"></path></g></g><g transform="translate(5.311 58.619)"><path class="a" d="M951.991,146.55s-9.749,10.319-9.749,29.819l-5.318,5.319V161.265l10.07-13.333Z" transform="translate(-936.924 -146.55)"></path></g><g transform="translate(3.964 26.281)"><g transform="translate(0)"><path class="a" d="M978.755,101.325a7.175,7.175,0,0,1-1.482-.024v35.277l-42.337,42.336v5l1.123,3.139,14.507-14.508a27.2,27.2,0,0,1,1.594-5.38c1.251-3.023,2.749-6.175,5.3-8.2a7.9,7.9,0,0,1,2.852-2.75c2.746-2.85,7.169-4.44,11.37-4.789l5.594-5.594,5.957-5.957V98.808A6.258,6.258,0,0,1,978.755,101.325Z" transform="translate(-934.936 -98.808)"></path></g></g><g transform="translate(44.78 65.693)"><g transform="translate(0 0)"><path class="a" d="M997.173,170.647a13.446,13.446,0,0,1,4.4,2.073l6.42-6.42.479-9.308L995.2,170.27A14.838,14.838,0,0,1,997.173,170.647Z" transform="translate(-995.195 -156.993)"></path></g></g></g><g transform="translate(9.874 116.737)"><g transform="translate(0 0)"><path class="a" d="M954.636,232.353l-10.975,10.975h8.83l4.543-4.543a48.323,48.323,0,0,1-2.4-6.432Z" transform="translate(-943.661 -232.353)"></path></g></g></g><g transform="translate(56.694 84.511)"><g transform="translate(0)"><path class="c" d="M1012.557,185.057l.393-7.633-3.883,3.883a19.048,19.048,0,0,1,3.49,3.75Z" transform="translate(-1009.067 -177.424)"></path></g></g><g transform="translate(0 0)"><g transform="translate(38.051 92.06)"><g transform="translate(0 0)"><path class="d" d="M982.924,193.778a1.056,1.056,0,0,1,.237.177c-.034-.052-.513-.408-.217-.167.171.14.342.278.508.424q.442.383.859.794.439.435.849.9.191.218.376.441c.061.074.122.15.183.223.295.362-.327-.437-.126-.167a20.42,20.42,0,0,1,2.392,4.167l-.281-.668a20.7,20.7,0,0,1,1.391,5.078l-.1-.743a23.015,23.015,0,0,1-.015,5.991l.1-.742a28.794,28.794,0,0,1-2.021,7.253l.281-.668q-.63,1.48-1.395,2.9a2.8,2.8,0,0,0,4.826,2.821,31.462,31.462,0,0,0,4.005-14.38,23.041,23.041,0,0,0-3.569-12.706,21.963,21.963,0,0,0-5.46-5.757,2.812,2.812,0,0,0-2.153-.282,2.852,2.852,0,0,0-1.669,1.284,2.819,2.819,0,0,0-.282,2.154,3.241,3.241,0,0,0,1.284,1.669Z" transform="translate(-981.547 -188.566)"></path></g></g><g transform="translate(0 28.244)"><g transform="translate(0 0)"><path class="d" d="M942.237,107.181a15.96,15.96,0,0,0,11.37-4.712,11.192,11.192,0,0,1,7.962-3.295h10.375a6.807,6.807,0,0,1-1.558-1.137,7.016,7.016,0,0,1-1.109-1.206,7.035,7.035,0,0,1-1.672-2.479h-6.037A15.973,15.973,0,0,0,950.2,99.061a11.187,11.187,0,0,1-7.961,3.3H925.366v14.209h2.41c4.005,0,6.8,2.147,6.8,4.073s-2.793,4.073-6.8,4.073h-2.412v4.714a11.779,11.779,0,0,0,7.66,11.023q-.677,1.308-1.245,2.682a34.776,34.776,0,0,0-2.66,13.371v15.728l36.315-36.315v-15.7l-4.821,4.821v8.882l-26.671,26.674V156.5a29.918,29.918,0,0,1,8.822-21.3l5.494-5.5h-6.815l-2.085,2.09a34.606,34.606,0,0,0-3.736,4.406,6.954,6.954,0,0,1-5.434-6.776v-.081a13.089,13.089,0,0,0,5.49-2.149,7.638,7.638,0,0,0,0-13.114,13.117,13.117,0,0,0-5.49-2.149v-4.753Z" transform="translate(-925.364 -94.353)"></path></g></g><g transform="translate(3.76 33.153)"><g transform="translate(0 0)"><path class="d" d="M977.461,102.226a6.64,6.64,0,0,1-3.537-.626v36.486l-38.186,38.187-4.117,4.117-.7.706V201.14h24.377a48.433,48.433,0,0,1-2.544-4.935h-3.515l2.489-2.488a47.67,47.67,0,0,1-1.642-5.174l-7.664,7.664h-6.565l13.177-13.178a32.027,32.027,0,0,1-.155-6.664L935.737,189.5v-6.4l15.2-15.2c1.236-2.968,2.726-6.035,5.223-8.018A7.9,7.9,0,0,1,959,157.131a15.649,15.649,0,0,1,6.542-3.844l13.2-13.2V101.976A6.227,6.227,0,0,1,977.461,102.226Z" transform="translate(-930.917 -101.6)"></path></g></g><g transform="translate(45.799 28.244)"><g transform="translate(0)"><path class="d" d="M1003.305,94.352a5.958,5.958,0,0,1-.752,2.073,6.489,6.489,0,0,1-2.687,2.749h6.12v37.755L992.98,149.936a16.187,16.187,0,0,1,3.474.5,13.655,13.655,0,0,1,2.1.748l7.437-7.438v6.565l-3.312,3.311c.262.172.521.351.773.544a22.355,22.355,0,0,1,7.361,11.132V94.352Z" transform="translate(-992.98 -94.352)"></path></g></g><g transform="translate(35.356 130.445)"><g transform="translate(0 0)"><path class="d" d="M979.886,251.513l16.306-1.957c.852-1.371,1.708-2.818,2.541-4.318l-21.17,2.538C978.339,249.084,979.12,250.335,979.886,251.513Z" transform="translate(-977.563 -245.238)"></path></g></g><g transform="translate(26.756 91.008)"><g transform="translate(0 0)"><path class="d" d="M996.78,222.345c4.187-8.619,6.893-18.275,3.389-25.507a16.045,16.045,0,0,0-4.465-5.475,19.805,19.805,0,0,0-24.759,0,16.048,16.048,0,0,0-4.465,5.475c-3.923,8.1-.063,19.232,4.945,28.546Zm-13.457-31.387a13.957,13.957,0,1,1-13.957,13.957,13.957,13.957,0,0,1,13.957-13.957Z" transform="translate(-964.867 -187.016)"></path></g></g><g transform="translate(40.086 138.946)"><g transform="translate(0 0)"><path class="d" d="M984.546,259.13c2.9,4.142,5.126,6.781,5.126,6.781s2.709-3.216,6.052-8.122Z" transform="translate(-984.546 -257.789)"></path></g></g><g transform="translate(45.174 25.369)"><g transform="translate(0.564 0.554)"><g transform="translate(0 0)"><path class="d" d="M996.908,90.937c1.035,0,2.069.013,3.1-.007a.591.591,0,0,1,.668.48,3.939,3.939,0,0,1-.866,4.2,3.86,3.86,0,0,1-4.117,1.061,4.029,4.029,0,0,1-2.472-5.438.7.7,0,0,1,.53-.284C994.806,90.924,995.857,90.937,996.908,90.937Zm0,1.248c-.787,0-1.574.008-2.361,0-.353-.006-.493.147-.52.493a2.888,2.888,0,1,0,5.764,0c-.027-.347-.167-.5-.521-.492C998.482,92.194,997.7,92.186,996.908,92.186Z" transform="translate(-992.893 -90.924)"></path></g></g><g transform="translate(0 0)"><path class="d" d="M996.755,97.163a5.452,5.452,0,0,1-1.476-.215,4.409,4.409,0,0,1-2.782-2.436,4.507,4.507,0,0,1-.047-3.774,1.235,1.235,0,0,1,1.023-.608c.789-.021,1.587-.018,2.36-.015l1.687,0c.726,0,1.476.006,2.211-.009h.039a1.136,1.136,0,0,1,1.168.858,4.51,4.51,0,0,1-.984,4.762A4.243,4.243,0,0,1,996.755,97.163Zm-.013-1.119h0a3.144,3.144,0,0,0,2.386-1.075,3.368,3.368,0,0,0,.747-3.641.716.716,0,0,0-.04-.1.779.779,0,0,0-.087,0c-.748.015-1.507.013-2.238.01l-1.687,0c-.764,0-1.554-.005-2.326.014a.31.31,0,0,0-.066.026,3.4,3.4,0,0,0,.077,2.771,3.3,3.3,0,0,0,2.042,1.821,3.5,3.5,0,0,1-1.446-.942,3.389,3.389,0,0,1-.907-2.554.991.991,0,0,1,1.061-1.008h.024c.556.008,1.113.007,1.669,0h1.367c.556,0,1.113,0,1.669,0h.025a.99.99,0,0,1,1.063,1.006,3.393,3.393,0,0,1-.906,2.554,3.474,3.474,0,0,1-2.433,1.123Zm-2.429-3.565a2.272,2.272,0,0,0,.616,1.685,2.3,2.3,0,0,0,3.422,0,2.271,2.271,0,0,0,.616-1.684c-.549.008-1.1.007-1.648.005H995.96c-.55,0-1.1,0-1.648-.006Z" transform="translate(-992.058 -90.108)"></path></g></g><g transform="translate(22.656 10.676)"><g transform="translate(0 0)"><path class="d" d="M976.568,83.866,958.814,68.417l13.972,2.214,9.14,11.247Zm-10.41-12.022,10.876,9.464,1.188-.439-6.631-8.164Z" transform="translate(-958.814 -68.417)"></path></g></g><g transform="translate(54.262 10.605)"><g transform="translate(0 0)"><path class="d" d="M1010.847,83.862l-5.371-1.957,9.075-11.3,13.96-2.294Zm-1.675-2.989,1.193.435,10.822-9.528-5.428.89Z" transform="translate(-1005.476 -68.312)"></path></g></g><g transform="translate(34.975)"><g transform="translate(0.987)"><g transform="translate(0.692 1.256)"><g transform="translate(0 0)"><path class="d" d="M979.573,59.941c.779.379,1.558.756,2.337,1.137l5.613,2.754c.627.306.635.3.932-.339q2-4.31,3.994-8.623c.041-.088.087-.175.18-.361.181.364.334.656.473.955q1.85,4,3.7,8c.306.663.307.662.955.344l7.607-3.72c.111-.056.234-.085.492-.179-.359.636-.647,1.158-.946,1.673q-3.908,6.727-7.819,13.453a8.143,8.143,0,0,0-.619,1.061c-.235.6-.656.692-1.237.682-1.872-.031-3.744-.017-5.619-.006a.63.63,0,0,1-.626-.355q-4.607-7.944-9.235-15.878c-.1-.167-.184-.337-.275-.507Zm13.05,14.49c.122-.239.2-.356.246-.483,1.036-2.814,2.063-5.632,3.107-8.443a1.235,1.235,0,0,0-.053-1.031c-1.023-2.182-2.028-4.372-3.043-6.558a3.557,3.557,0,0,0-.255-.4,4.489,4.489,0,0,0-.243.389c-1,2.156-1.99,4.317-3,6.466a1.492,1.492,0,0,0-.041,1.262c1.025,2.748,2.027,5.508,3.038,8.259a5.523,5.523,0,0,0,.249.535Zm-.894,1.06c-.1-.325-.155-.527-.228-.723-1.137-3.04-2.271-6.08-3.427-9.113a1.057,1.057,0,0,0-.486-.5c-1.535-.779-3.083-1.533-4.628-2.292a3.27,3.27,0,0,0-.426-.129c.128.252.2.4.275.537q1.891,3.282,3.789,6.561c1.017,1.76,2.032,3.523,3.06,5.277.09.155.262.352.41.365.513.046,1.033.018,1.661.018Zm11.036-12.77a2.6,2.6,0,0,0-.346.082c-1.619.8-3.241,1.584-4.848,2.4a1.081,1.081,0,0,0-.42.556q-1.138,2.961-2.243,5.933c-.414,1.1-.831,2.209-1.224,3.322-.045.128.024.42.108.451a1.654,1.654,0,0,0,2.083-.792q2.675-4.647,5.357-9.291c.488-.844.977-1.694,1.534-2.664Z" transform="translate(-979.478 -54.508)"></path></g></g><g transform="translate(0)"><path class="d" d="M995.02,76.74h-.13c-1.728-.028-3.489-.018-5.193-.009h-.424a1.168,1.168,0,0,1-1.1-.635q-3.544-6.107-7.1-12.209l-2.135-3.668c-.069-.12-.134-.243-.2-.365l-.283-.526.675-.663,1.1.533,1.594.779L984.1,61.1l3.332,1.634.119.056.061-.131,3.993-8.623c.028-.062.06-.123.106-.215l.583-1.164L992.965,54c.111.223.214.424.309.63q1.18,2.551,2.358,5.1l1.339,2.893.066.143.134-.066.417-.2q3.6-1.76,7.192-3.517a2.63,2.63,0,0,1,.321-.124l.227-.078,1.416-.51-1.075,1.9c-.216.386-.414.737-.616,1.084q-3.908,6.728-7.82,13.453c-.074.127-.155.253-.237.377a3.531,3.531,0,0,0-.344.606A1.578,1.578,0,0,1,995.02,76.74Zm-2.687-1.14c.858,0,1.72.005,2.576.019.53.01.607-.072.706-.326a4.395,4.395,0,0,1,.449-.811c.071-.108.142-.217.206-.328q3.912-6.726,7.82-13.453l.107-.186q-3.06,1.494-6.115,2.99l-.416.2c-.406.2-.7.342-1.038.223s-.48-.42-.668-.834L994.626,60.2l-2.316-5.01-3.676,7.935c-.187.4-.323.7-.664.818a1.285,1.285,0,0,1-1.02-.211q-1.669-.816-3.334-1.635l-2.281-1.12-.918-.445,1.626,2.794q3.553,6.1,7.1,12.21a.357.357,0,0,0,.05.072.551.551,0,0,0,.084.005h.417C990.564,75.606,991.449,75.6,992.333,75.6Zm1.756-.056a2.378,2.378,0,0,1-.816-.149.981.981,0,0,1-.445-1.159c.371-1.054.769-2.114,1.154-3.139l.259-.692c.681-1.815,1.362-3.631,2.058-5.441a1.637,1.637,0,0,1,.688-.856c1.313-.668,2.656-1.329,3.954-1.966l.9-.442a1.045,1.045,0,0,1,.278-.085c.045-.009.105-.021.188-.041l1.251-.292-1.144,2c-.357.623-.69,1.205-1.025,1.787l-1.94,3.362q-1.709,2.962-3.417,5.928a2.225,2.225,0,0,1-1.941,1.186Zm-.14-1.127a1.1,1.1,0,0,0,1.113-.618q1.707-2.967,3.419-5.929l1.938-3.362c.229-.4.457-.794.692-1.2-1.194.586-2.42,1.189-3.616,1.8a.807.807,0,0,0-.152.261c-.694,1.807-1.374,3.621-2.054,5.433l-.259.692c-.359.957-.732,1.947-1.077,2.927Zm-3.5,1.041c-.255,0-.5-.006-.755-.028a1.217,1.217,0,0,1-.844-.639q-1.27-2.17-2.523-4.348l-.537-.932q-1.9-3.282-3.789-6.565c-.055-.1-.107-.2-.173-.334l-.707-1.391,1.249.371c.069.021.128.036.177.049a1.733,1.733,0,0,1,.334.115l.6.293c1.326.65,2.7,1.322,4.037,2a1.605,1.605,0,0,1,.757.8c1.045,2.742,2.089,5.537,3.1,8.239l.328.876c.051.138.095.278.149.458l.317,1.019H991.4c-.177,0-.345,0-.507,0s-.3.007-.448.007Zm-.562-1.134c.24.017.486.018.757.016l-.318-.853c-1.01-2.7-2.055-5.493-3.1-8.234a.533.533,0,0,0-.218-.2c-1.163-.59-2.352-1.176-3.513-1.746q1.629,2.822,3.26,5.645l.538.932q1.255,2.174,2.519,4.343a.59.59,0,0,0,.071.1Zm2.392.771-.485-1.025c-.042-.088-.078-.161-.111-.223a3.385,3.385,0,0,1-.16-.354l-.946-2.575q-1.04-2.843-2.093-5.681a2.055,2.055,0,0,1,.06-1.7c.7-1.471,1.379-2.949,2.062-4.426l.942-2.036a2.245,2.245,0,0,1,.177-.3c.029-.044.062-.093.1-.151l.463-.744.48.734c.034.052.066.1.095.137a2.15,2.15,0,0,1,.2.327L994.1,59.34q.995,2.151,2,4.3a1.788,1.788,0,0,1,.071,1.463q-1.038,2.792-2.058,5.589l-1.048,2.852a2.5,2.5,0,0,1-.163.339c-.031.056-.067.124-.111.206Zm.028-16.989-.682,1.475c-.684,1.481-1.368,2.962-2.066,4.436a.934.934,0,0,0-.023.827q1.057,2.837,2.1,5.688l.676,1.844.761-2.072q1.027-2.8,2.058-5.593a.687.687,0,0,0-.035-.6q-1.008-2.148-2-4.3Z" transform="translate(-978.456 -52.653)"></path></g></g><g transform="translate(0 5.127)"><path class="d" d="M978.314,62.2,977,60.224l2.192,1.315Z" transform="translate(-977 -60.224)"></path></g></g></g></g><g transform="translate(212.04 565.926)"><g transform="translate(0 0.21)"><g transform="translate(0.388 0.374)"><path class="d" d="M1072.97,162.532h-2.487l-7.687-12.6-.218-.357-.365-.6-.677.189-.028.008-.013,0h-.008l-.024.007c-.053.015-.1.031-.158.043l-.032.008-.014.006h-.015l-.009,0-.016,0c-.094.026-.19.047-.284.07q-.331.075-.668.132c-.056.011-.111.02-.167.028h-.023l-.023,0-.064.011-.016,0c-.078.012-.157.024-.236.033h-.019l-.082.011h-.021c-.086.011-.171.021-.257.029h0c-.111.011-.214.02-.305.027l-.047,0c-.091.007-.182.012-.278.017h-.058l-.211.008h-.14l-.266,0h-6.064v12.9h-2.124V147.495h8.185a10.778,10.778,0,0,0,10.254-7.476l.389-1.212h-16.7v6.451l-.962.475-1.162.575v-9.624h21.078v.047a12.87,12.87,0,0,1-3.839,9.174c-.17.167-.334.319-.5.465-.056.049-.111.1-.167.145-.011.009-.021.017-.03.027-.073.062-.147.122-.222.185l0,0,0,0c-.051.042-.1.085-.161.13-.023.019-.047.036-.069.056l-.041.032c-.135.106-.278.21-.437.323l-.163.111-.01,0-.056.037c-.056.039-.117.08-.176.117l-.033.021-.005,0-.017.011-.022.014-.041.026-.766.49.472.779.479.786Z" transform="translate(-1049.86 -136.683)"></path></g><path class="d" d="M1073.228,162.5h-3.4L1061.6,149l-.506.14c-.045.013-.091.026-.137.036l-.056.016c-.086.022-.159.039-.232.056l-.076.018c-.223.051-.455.1-.693.138-.056.011-.115.021-.179.029l-.028,0a.8.8,0,0,1-.087.014c-.086.014-.171.027-.253.036l-.03,0-.077.009-.077-.383.048.389-.167.02h0l-.091.009c-.116.011-.22.021-.314.027h-.027c-.111.008-.207.014-.3.019l-.424.015-.275,0h-5.674v12.9h-2.9V146.7h8.575a10.388,10.388,0,0,0,9.883-7.206l.223-.7h-15.78v6.3l-2.9,1.436v-10.64h21.856v.436a13.258,13.258,0,0,1-3.954,9.452c-.173.17-.34.326-.512.479-.056.049-.111.1-.17.15l-.03.027-.167.136-.086.071c-.048.04-.1.08-.152.123l-.056.045-.056.044c-.137.107-.284.215-.449.334l-.233.159c-.06.042-.125.086-.191.126l-.039.026h0l-.52.334.754,1.237Zm-2.963-.779h1.575l-8.623-14.142,1.113-.71.231.315-.027-.042-.2-.271.09-.061c.058-.036.111-.072.164-.108l.222-.154c.153-.111.291-.209.421-.311l.1-.078c.061-.048.111-.088.158-.129l.078-.064.138-.114.036-.032c.06-.051.111-.1.164-.144.167-.145.322-.293.484-.453a12.479,12.479,0,0,0,3.717-8.554h-20.294v8.607l1.345-.665v-6.6h17.626l-.551,1.72a11.136,11.136,0,0,1-10.626,7.748h-7.8v14.242h1.345v-12.9h6.709l.41-.014.259-.017.037,0,.218-.018.017-.01h.094c.072-.007.143-.016.215-.024l.043-.005.067-.008.04,0c.076-.009.145-.02.212-.03l.111-.018c.067-.009.115-.017.167-.027q.347-.06.654-.13l.076-.018c.065-.015.13-.03.195-.048l.094-.024c.039-.008.07-.018.1-.027l1.08-.3.736,1.209Z" transform="translate(-1049.037 -135.886)"></path></g><g transform="translate(23.861 0.128)"><g transform="translate(0.387 0.389)"><path class="d" d="M1126.313,149.495a12.957,12.957,0,1,1-12.958-12.958A12.957,12.957,0,0,1,1126.313,149.495Zm-2.257,0a10.7,10.7,0,1,0-10.7,10.7,10.7,10.7,0,0,0,10.7-10.7Z" transform="translate(-1100.398 -136.537)"></path></g><g transform="translate(0 0)"><path class="d" d="M1112.925,162.407a13.347,13.347,0,1,1,13.346-13.346A13.347,13.347,0,0,1,1112.925,162.407Zm0-25.915a12.567,12.567,0,1,0,12.567,12.567A12.568,12.568,0,0,0,1112.925,136.492Zm0,23.658a11.09,11.09,0,1,1,11.088-11.09A11.09,11.09,0,0,1,1112.925,160.15Zm0-21.4a10.311,10.311,0,1,0,10.309,10.31A10.311,10.311,0,0,0,1112.925,138.748Z" transform="translate(-1099.578 -135.713)"></path></g></g><g transform="translate(49.797 0)"><g transform="translate(0.639 0.845)"><path class="d" d="M1165.237,144.807l1.258,2.442-8.1,15.57h-2.531Zm17.251,18.012h-2.53l-9.736-18.717-2.309-4.439,1.264-2.431,1.584,3.046Z" transform="translate(-1155.867 -137.231)"></path></g><g transform="translate(0)"><path class="d" d="M1182.417,162.264h-3.408l-.111-.21-12.137-23.336,1.7-3.276Zm-2.935-.779h1.652l-12.668-24.353-.825,1.587Zm-21.56.779h-3.408l10.014-19.249,1.7,3.291Zm-2.125-.779h1.652l7.9-15.18-.824-1.595Z" transform="translate(-1154.513 -135.442)"></path></g></g><g transform="translate(79.181 0.21)"><g transform="translate(0.388 0.374)"><path class="d" d="M1240.689,162.532H1238.2l-7.686-12.6-.218-.357-.365-.6-.677.189-.028.008-.013,0h-.009l-.024.007c-.056.015-.1.031-.158.043l-.032.008-.015.006h-.014l-.01,0-.016,0c-.094.026-.19.047-.284.07q-.334.075-.668.132c-.056.011-.111.02-.167.028h-.023l-.023,0-.064.011-.016,0c-.078.012-.158.024-.236.033h-.019l-.083.011h-.021c-.087.011-.172.021-.258.029h0c-.111.011-.214.02-.305.027l-.046,0-.278.017h-.058l-.211.008h-.141l-.266,0H1219.7v12.9h-2.124V147.495h8.19a10.777,10.777,0,0,0,10.254-7.476l.389-1.212H1219.7v6.451l-.962.475-1.161.575v-9.624h21.077v.047a12.868,12.868,0,0,1-3.839,9.174c-.17.167-.334.319-.5.465-.055.049-.111.1-.167.145-.011.009-.021.017-.03.027-.073.062-.147.122-.223.185l0,0,0,0c-.05.042-.1.085-.16.13-.022.019-.046.036-.069.056l-.041.032c-.135.106-.278.21-.437.323l-.163.111-.01,0-.055.037c-.056.039-.117.08-.177.117l-.033.021-.006,0-.017.011-.021.014-.041.026-.766.49.472.779.479.786Z" transform="translate(-1217.579 -136.683)"></path></g><g transform="translate(0)"><path class="d" d="M1240.947,162.5h-3.4l-8.23-13.5-.506.14c-.045.013-.091.026-.137.036l-.056.016c-.086.022-.158.039-.231.056l-.076.018c-.222.051-.455.1-.693.138-.056.011-.116.021-.18.029l-.028,0a.8.8,0,0,1-.087.014c-.087.014-.17.027-.253.036l-.03,0-.077.009-.077-.383.048.389-.167.02h0l-.091.009c-.116.011-.22.021-.314.027h-.027c-.111.008-.207.014-.3.019l-.423.015-.275,0h-5.674v12.9h-2.9V146.7h8.575a10.387,10.387,0,0,0,9.883-7.206l.223-.7h-15.78v6.3l-2.9,1.436v-10.64h21.856v.436a13.258,13.258,0,0,1-3.954,9.452c-.173.17-.34.326-.512.479-.056.049-.111.1-.171.15l-.03.027-.167.136-.086.071c-.048.04-.1.08-.152.123-.013.012-.035.028-.056.045l-.056.044c-.138.107-.285.215-.449.334l-.232.159c-.06.042-.126.086-.191.126l-.039.026h0l-.52.334.753,1.237Zm-2.963-.779h1.575l-8.623-14.142,1.113-.71.232.315-.027-.042-.2-.271.091-.061c.056-.036.111-.072.164-.108l.223-.154c.154-.111.291-.209.421-.311l.1-.078c.061-.048.111-.088.158-.129l.078-.064.139-.114.036-.032c.06-.051.111-.1.164-.144.167-.145.322-.293.484-.453a12.48,12.48,0,0,0,3.717-8.554h-20.294v8.607l1.344-.665v-6.6H1236.5l-.551,1.72a11.136,11.136,0,0,1-10.626,7.748h-7.8v14.242h1.345v-12.9h6.709l.409-.014.259-.017.037,0,.218-.018.017-.01h.094c.072-.007.143-.016.215-.024l.043-.005.067-.008.04,0c.075-.009.145-.02.212-.03l.111-.018c.067-.009.115-.017.167-.027q.346-.06.654-.13l.076-.018c.065-.015.13-.03.2-.048l.094-.024c.04-.008.07-.018.1-.027l1.08-.3.736,1.209Z" transform="translate(-1216.756 -135.886)"></path></g></g></g></g></g></svg>